<?xml version="1.0" encoding="UTF-8" standalone="no"?>
<!-- Created with Inkscape (http://www.inkscape.org/) -->

<svg
   width="400"
   height="400"
   viewBox="0 0 105.83333 105.83333"
   version="1.1"
   id="svg1"
   inkscape:version="1.3.2 (091e20e, 2023-11-25)"
   sodipodi:docname="img_4.svg"
   xmlns:inkscape="http://www.inkscape.org/namespaces/inkscape"
   xmlns:sodipodi="http://sodipodi.sourceforge.net/DTD/sodipodi-0.dtd"
   xmlns="http://www.w3.org/2000/svg"
   xmlns:svg="http://www.w3.org/2000/svg">
  <sodipodi:namedview
     id="namedview1"
     pagecolor="#ffffff"
     bordercolor="#000000"
     borderopacity="0.25"
     inkscape:showpageshadow="2"
     inkscape:pageopacity="0.0"
     inkscape:pagecheckerboard="0"
     inkscape:deskcolor="#d1d1d1"
     inkscape:document-units="px"
     showgrid="true"
     inkscape:zoom="1.35634"
     inkscape:cx="234.82313"
     inkscape:cy="203.48881"
     inkscape:window-width="1440"
     inkscape:window-height="753"
     inkscape:window-x="0"
     inkscape:window-y="25"
     inkscape:window-maximized="1"
     inkscape:current-layer="layer1">
    <inkscape:grid
       type="axonomgrid"
       id="grid1"
       units="mm"
       originx="0"
       originy="0"
       spacingx="0"
       spacingy="0.99999997"
       empcolor="#0099e5"
       empopacity="0.30196078"
       color="#0099e5"
       opacity="0.14901961"
       empspacing="5"
       dotted="false"
       gridanglex="30"
       gridanglez="30"
       visible="true" />
  </sodipodi:namedview>
  <defs
     id="defs1" />
  <g
     inkscape:label="Layer 1"
     inkscape:groupmode="layer"
     id="layer1">
    <path
       style="fill:#e6e6e6;stroke:#000000;stroke-width:0"
       d="m 30.310888,12.499999 c 0,14.999999 0,14.999999 0,14.999999 l 12.99038,7.500001 V 20 Z"
       id="path1" />
    <path
       style="fill:#cdcdcd;fill-opacity:1;stroke:#000000;stroke-width:0"
       d="m 43.291003,34.999999 c 0,-14.999999 0,-14.999999 0,-14.999999 l 12.99038,-7.500001 v 14.999999 z"
       id="path1-8" />
    <path
       style="fill:#b3b3b3;stroke:#000000;stroke-width:0"
       d="M 30.310888,12.499999 C 43.301268,4.8391413 43.301268,5.0000003 43.301268,5.0000003 V 20 Z"
       id="path3" />
    <path
       style="fill:#999999;fill-opacity:1;stroke:#000000;stroke-width:0"
       d="M 43.301268,5.0000003 C 56.281384,12.499999 56.29165,12.499999 56.29165,12.499999 L 43.301268,20 Z"
       id="path4" />
    <path
       style="fill:#1a1a1a;fill-opacity:1;stroke:#000000;stroke-width:0"
       d="M 34.641014,29.999998 C 34.641014,20 34.594214,20 34.594214,20 l 4.376924,2.5 v 9.999999 z"
       id="path5" />
    <path
       style="fill:#e6e6e6;stroke:#000000;stroke-width:0"
       d="m 51.961521,24.999997 c 0,14.999999 0,14.999999 0,14.999999 l 12.99038,7.500001 V 32.499998 Z"
       id="path1-5" />
    <path
       style="fill:#cdcdcd;fill-opacity:1;stroke:#000000;stroke-width:0"
       d="m 64.941636,47.499997 c 0,-14.999999 0,-14.999999 0,-14.999999 l 12.99038,-7.500001 v 14.999999 z"
       id="path1-8-2" />
    <path
       style="fill:#b3b3b3;stroke:#000000;stroke-width:0"
       d="m 51.961521,24.999997 c 12.99038,-7.660858 12.99038,-7.499999 12.99038,-7.499999 v 15 z"
       id="path3-1" />
    <path
       style="fill:#999999;fill-opacity:1;stroke:#000000;stroke-width:0"
       d="m 64.951901,17.499998 c 12.980116,7.499999 12.990382,7.499999 12.990382,7.499999 l -12.990382,7.500001 z"
       id="path4-1" />
    <path
       style="fill:#1a1a1a;fill-opacity:1;stroke:#000000;stroke-width:0"
       d="m 56.291647,42.499996 c 0,-9.999998 -0.0468,-9.999998 -0.0468,-9.999998 l 4.376924,2.5 v 9.999999 z"
       id="path5-0" />
    <path
       style="fill:#e6e6e6;stroke:#000000;stroke-width:0"
       d="m 73.612155,37.499996 c 0,14.999999 0,14.999999 0,14.999999 l 12.99038,7.500001 V 44.999997 Z"
       id="path1-6" />
    <path
       style="fill:#cdcdcd;fill-opacity:1;stroke:#000000;stroke-width:0"
       d="m 86.59227,59.999996 c 0,-14.999999 0,-14.999999 0,-14.999999 l 12.99038,-7.500001 v 14.999999 z"
       id="path1-8-0" />
    <path
       style="fill:#b3b3b3;stroke:#000000;stroke-width:0"
       d="m 73.612155,37.499996 c 12.99038,-7.660858 12.99038,-7.499999 12.99038,-7.499999 v 15 z"
       id="path3-0" />
    <path
       style="fill:#999999;fill-opacity:1;stroke:#000000;stroke-width:0"
       d="m 86.602535,29.999997 c 12.980116,7.499999 12.990382,7.499999 12.990382,7.499999 l -12.990382,7.500001 z"
       id="path4-9" />
    <path
       style="fill:#1a1a1a;fill-opacity:1;stroke:#000000;stroke-width:0"
       d="m 77.942281,54.999995 c 0,-9.999998 -0.0468,-9.999998 -0.0468,-9.999998 l 4.376924,2.5 v 9.999999 z"
       id="path5-5" />
    <path
       style="fill:#e6e6e6;stroke:#000000;stroke-width:0"
       d="m 34.641015,54.999997 c 0,14.999999 0,14.999999 0,14.999999 l 12.99038,7.500001 V 62.499998 Z"
       id="path1-0" />
    <path
       style="fill:#cdcdcd;fill-opacity:1;stroke:#000000;stroke-width:0"
       d="m 47.62113,77.499997 c 0,-14.999999 0,-14.999999 0,-14.999999 l 12.99038,-7.500001 v 14.999999 z"
       id="path1-8-8" />
    <path
       style="fill:#b3b3b3;stroke:#000000;stroke-width:0"
       d="m 34.641015,54.999997 c 12.99038,-7.660858 12.99038,-7.499999 12.99038,-7.499999 v 15 z"
       id="path3-4" />
    <path
       style="fill:#999999;fill-opacity:1;stroke:#000000;stroke-width:0"
       d="m 47.631395,47.499998 c 12.980116,7.499999 12.990382,7.499999 12.990382,7.499999 l -12.990382,7.500001 z"
       id="path4-0" />
    <path
       style="fill:#1a1a1a;fill-opacity:1;stroke:#000000;stroke-width:0"
       d="m 38.971141,72.499996 c 0,-9.999998 -0.0468,-9.999998 -0.0468,-9.999998 l 4.376924,2.5 v 9.999999 z"
       id="path5-4" />
    <path
       style="fill:#e6e6e6;stroke:#000000;stroke-width:0"
       d="m 56.291648,67.499995 c 0,14.999999 0,14.999999 0,14.999999 l 12.99038,7.500001 V 74.999996 Z"
       id="path1-5-6" />
    <path
       style="fill:#cdcdcd;fill-opacity:1;stroke:#000000;stroke-width:0"
       d="m 69.271763,89.999995 c 0,-14.999999 0,-14.999999 0,-14.999999 l 12.99038,-7.500001 v 14.999999 z"
       id="path1-8-2-4" />
    <path
       style="fill:#b3b3b3;stroke:#000000;stroke-width:0"
       d="m 56.291648,67.499995 c 12.99038,-7.660858 12.99038,-7.499999 12.99038,-7.499999 v 15 z"
       id="path3-1-6" />
    <path
       style="fill:#999999;fill-opacity:1;stroke:#000000;stroke-width:0"
       d="m 69.282028,59.999996 c 12.980116,7.499999 12.990382,7.499999 12.990382,7.499999 l -12.990382,7.500001 z"
       id="path4-1-4" />
    <path
       style="fill:#1a1a1a;fill-opacity:1;stroke:#000000;stroke-width:0"
       d="m 60.621774,84.999994 c 0,-9.999998 -0.0468,-9.999998 -0.0468,-9.999998 l 4.376924,2.5 v 9.999999 z"
       id="path5-0-3" />
    <path
       style="fill:#e6e6e6;stroke:#000000;stroke-width:0"
       d="m 77.942282,79.999994 c 0,14.999999 0,14.999999 0,14.999999 l 12.99038,7.499997 V 87.499995 Z"
       id="path1-6-8" />
    <path
       style="fill:#cdcdcd;fill-opacity:1;stroke:#000000;stroke-width:0"
       d="m 90.922397,102.49999 c 0,-14.999995 0,-14.999995 0,-14.999995 l 12.990383,-7.500001 v 14.999999 z"
       id="path1-8-0-4" />
    <path
       style="fill:#b3b3b3;stroke:#000000;stroke-width:0"
       d="m 77.942282,79.999994 c 12.99038,-7.660858 12.99038,-7.499999 12.99038,-7.499999 v 15 z"
       id="path3-0-0" />
    <path
       style="fill:#999999;fill-opacity:1;stroke:#000000;stroke-width:0"
       d="m 90.932662,72.499995 c 12.980118,7.499999 12.990378,7.499999 12.990378,7.499999 l -12.990378,7.500001 z"
       id="path4-9-0" />
    <path
       style="fill:#1a1a1a;fill-opacity:1;stroke:#000000;stroke-width:0"
       d="m 82.272408,97.499993 c 0,-9.999998 -0.0468,-9.999998 -0.0468,-9.999998 l 4.376924,2.5 v 9.999999 z"
       id="path5-5-9" />
    <path
       style="fill:#e6e6e6;stroke:#000000;stroke-width:0"
       d="m 10.835582,68.749995 c 0,14.999999 0,14.999999 0,14.999999 l 12.99038,7.500001 V 76.249996 Z"
       id="path1-5-5" />
    <path
       style="fill:#cdcdcd;fill-opacity:1;stroke:#000000;stroke-width:0"
       d="m 23.815697,91.249995 c 0,-14.999999 0,-14.999999 0,-14.999999 l 12.990384,-7.500001 v 14.999999 z"
       id="path1-8-2-3" />
    <path
       style="fill:#b3b3b3;stroke:#000000;stroke-width:0"
       d="m 10.835582,68.749995 c 12.99038,-7.660858 12.99038,-7.499999 12.99038,-7.499999 v 15 z"
       id="path3-1-0" />
    <path
       style="fill:#999999;fill-opacity:1;stroke:#000000;stroke-width:0"
       d="m 23.825962,61.249996 c 12.980119,7.499999 12.990379,7.499999 12.990379,7.499999 l -12.990379,7.500001 z"
       id="path4-1-48" />
    <path
       style="fill:#1a1a1a;fill-opacity:1;stroke:#000000;stroke-width:0"
       d="m 15.165708,86.249994 c 0,-9.999998 -0.0468,-9.999998 -0.0468,-9.999998 l 4.376924,2.5 v 9.999999 z"
       id="path5-0-5" />
    <path
       style="fill:#e6e6e6;stroke:#000000;stroke-width:0"
       d="m 32.486216,81.249994 c 0,15.000001 0,15.000001 0,15.000001 L 45.476601,103.75 V 88.749995 Z"
       id="path1-6-5" />
    <path
       style="fill:#cdcdcd;fill-opacity:1;stroke:#000000;stroke-width:0"
       d="m 45.466331,103.75 c 0,-15.000005 0,-15.000005 0,-15.000005 l 12.99038,-7.500001 v 15.000001 z"
       id="path1-8-0-5" />
    <path
       style="fill:#b3b3b3;stroke:#000000;stroke-width:0"
       d="m 32.486216,81.249994 c 12.990385,-7.660858 12.990385,-7.499999 12.990385,-7.499999 v 15 z"
       id="path3-0-4" />
    <path
       style="fill:#999999;fill-opacity:1;stroke:#000000;stroke-width:0"
       d="m 45.476601,73.749995 c 12.98011,7.499999 12.99038,7.499999 12.99038,7.499999 l -12.99038,7.500001 z"
       id="path4-9-2" />
    <path
       style="fill:#1a1a1a;fill-opacity:1;stroke:#000000;stroke-width:0"
       d="m 36.816341,98.749995 c 0,-10 -0.0468,-10 -0.0468,-10 l 4.37692,2.5 V 101.25 Z"
       id="path5-5-1" />
    <path
       style="fill:#e6e6e6;stroke:#000000;stroke-width:0"
       d="m 4.3301284,37.499996 c 0,14.999999 0,14.999999 0,14.999999 L 17.320509,59.999996 V 44.999997 Z"
       id="path1-6-85" />
    <path
       style="fill:#cdcdcd;fill-opacity:1;stroke:#000000;stroke-width:0"
       d="m 17.310239,59.999996 c 0,-14.999999 0,-14.999999 0,-14.999999 l 12.99038,-7.500001 v 14.999999 z"
       id="path1-8-0-6" />
    <path
       style="fill:#b3b3b3;stroke:#000000;stroke-width:0"
       d="M 4.3301284,37.499996 C 17.320509,29.839138 17.320509,29.999997 17.320509,29.999997 v 15 z"
       id="path3-0-7" />
    <path
       style="fill:#999999;fill-opacity:1;stroke:#000000;stroke-width:0"
       d="m 17.320509,29.999997 c 12.98011,7.499999 12.99038,7.499999 12.99038,7.499999 l -12.99038,7.500001 z"
       id="path4-9-9" />
    <path
       style="fill:#1a1a1a;fill-opacity:1;stroke:#000000;stroke-width:0"
       d="m 8.6602544,54.999995 c 0,-9.999998 -0.0468,-9.999998 -0.0468,-9.999998 l 4.3769246,2.5 v 9.999999 z"
       id="path5-5-4" />
  </g>
</svg>
