<?xml version="1.0" encoding="UTF-8" standalone="no"?>
<!-- Created with Inkscape (http://www.inkscape.org/) -->

<svg
   width="400"
   height="400"
   viewBox="0 0 105.83333 105.83333"
   version="1.1"
   id="svg1"
   inkscape:version="1.3.2 (091e20e, 2023-11-25)"
   sodipodi:docname="img_2.svg"
   xmlns:inkscape="http://www.inkscape.org/namespaces/inkscape"
   xmlns:sodipodi="http://sodipodi.sourceforge.net/DTD/sodipodi-0.dtd"
   xmlns="http://www.w3.org/2000/svg"
   xmlns:svg="http://www.w3.org/2000/svg">
  <sodipodi:namedview
     id="namedview1"
     pagecolor="#ffffff"
     bordercolor="#000000"
     borderopacity="0.25"
     inkscape:showpageshadow="2"
     inkscape:pageopacity="0.0"
     inkscape:pagecheckerboard="0"
     inkscape:deskcolor="#d1d1d1"
     inkscape:document-units="px"
     showgrid="true"
     inkscape:zoom="1.6103745"
     inkscape:cx="181.63477"
     inkscape:cy="209.26809"
     inkscape:window-width="1440"
     inkscape:window-height="753"
     inkscape:window-x="0"
     inkscape:window-y="25"
     inkscape:window-maximized="1"
     inkscape:current-layer="layer2">
    <inkscape:grid
       type="axonomgrid"
       id="grid1"
       units="mm"
       originx="0"
       originy="0"
       spacingx="0"
       spacingy="0.99999997"
       empcolor="#0099e5"
       empopacity="0.30196078"
       color="#0099e5"
       opacity="0.14901961"
       empspacing="5"
       dotted="false"
       gridanglex="30"
       gridanglez="30"
       visible="true" />
  </sodipodi:namedview>
  <defs
     id="defs1" />
  <g
     inkscape:label="Layer 1"
     inkscape:groupmode="layer"
     id="layer1">
    <path
       style="fill:#282828;stroke:#000000;stroke-width:0;fill-opacity:1"
       d="m 12.990379,27.73749 10e-7,49.762505 38.971141,22.499999 38.971141,-22.499999 -10e-7,-49.762505 -38.97114,-22.4999953 z"
       id="path1"
       sodipodi:nodetypes="ccccccc" />
    <path
       style="fill:#b3b3b3;stroke:#000000;stroke-width:0"
       d="M 51.96152,10.788146 C 17.320507,30.237495 17.320507,30.237495 17.320507,30.237495 l 34.641016,20 34.641014,-20 z"
       id="path2" />
    <path
       style="fill:#808000;stroke:#000000;stroke-width:0"
       d="m 12.99038,35.349597 38.971141,22.6504 38.971142,-22.623808 10e-7,6.397045 L 51.961522,63.859663 12.99038,40.646376 Z"
       id="path3"
       sodipodi:nodetypes="ccccccc" />
    <path
       style="fill:#808000;stroke:#000000;stroke-width:0"
       d="m 12.99038,44.349596 38.971141,22.6504 38.971142,-22.623808 10e-7,6.397045 L 51.961522,72.859662 12.99038,49.646375 Z"
       id="path3-8"
       sodipodi:nodetypes="ccccccc" />
    <path
       style="fill:#808000;stroke:#000000;stroke-width:0"
       d="m 21.650634,49.499998 c 0,32.999997 0,32.999997 0,32.999997 l 12.990382,7.5 V 56.999996 Z"
       id="path4" />
    <path
       style="fill:#292929;stroke:#000000;stroke-width:0;fill-opacity:1"
       d="m 34.641014,56.499996 0,7.000001 4.330127,2.5 v -7.000001 z"
       id="path5"
       sodipodi:nodetypes="ccccc" />
    <path
       style="fill:#292929;stroke:#000000;stroke-width:0;fill-opacity:1"
       d="m 17.320507,46.499996 1e-6,7.000001 4.330126,2.5 v -7.000001 z"
       id="path5-2"
       sodipodi:nodetypes="ccccc" />
    <path
       style="fill:#292929;stroke:#000000;stroke-width:0;fill-opacity:1"
       d="m 47.631394,63.999996 10e-7,7.000001 4.330126,2.499999 v -7 z"
       id="path5-1"
       sodipodi:nodetypes="ccccc" />
    <path
       style="fill:#040404;fill-opacity:1;stroke:#000000;stroke-width:0"
       d="m 51.961523,50.228414 c 0,49.762502 0,49.762502 0,49.762502 l 38.97114,-22.5 V 27.728409 l -38.97114,22.262507 z"
       id="path6" />
    <path
       style="fill:#666600;fill-opacity:1;stroke:#000000;stroke-width:0"
       d="m 51.961523,57.9867 c 0,5.859666 0,5.859666 0,5.859666 l 38.97114,-22.086429 v -6.397043 z"
       id="path7" />
    <path
       style="fill:#666600;fill-opacity:1;stroke:#000000;stroke-width:0"
       d="m 51.961523,66.986699 c 0,5.859666 0,5.859666 0,5.859666 l 38.97114,-22.086429 v -6.397043 z"
       id="path7-2" />
  </g>
  <g
     inkscape:groupmode="layer"
     id="layer2"
     inkscape:label="Layer 2">
    <path
       style="fill:#050505;stroke:#000000;stroke-width:0;fill-opacity:1"
       d="m 56.291648,70.999996 v -7.000001 l 4.330127,-2.5 v 7.000001 z"
       id="path5-8"
       sodipodi:nodetypes="ccccc" />
    <path
       style="fill:#050505;fill-opacity:1;stroke:#000000;stroke-width:0"
       d="m 78.276714,58.749996 v -7.000001 l 4.33013,-2.5 v 7.000001 z"
       id="path5-8-5"
       sodipodi:nodetypes="ccccc" />
    <path
       style="fill:#050505;fill-opacity:1;stroke:#000000;stroke-width:0"
       d="m 69.282028,63.499997 v -7.000001 l 4.330129,-2.5 v 7.000001 z"
       id="path5-8-3"
       sodipodi:nodetypes="ccccc" />
    <path
       style="fill:#050505;fill-opacity:1;stroke:#000000;stroke-width:0"
       d="m 51.961523,4.9999997 -3e-6,5.7881463 34.641017,19.449349 4.330126,-2.500005 z"
       id="path8"
       sodipodi:nodetypes="ccccc" />
  </g>
</svg>
